<!DOCTYPE svg PUBLIC "-//W3C//DTD SVG 20010904//EN" "http://www.w3.org/TR/2001/REC-SVG-20010904/DTD/svg10.dtd">
<svg version="1.0" xmlns="http://www.w3.org/2000/svg" width="303px" height="1200px" viewBox="0 0 3030 12000" preserveAspectRatio="xMidYMid meet">
<g id="layer101" fill="#070101" stroke="none">
 <path d="M0 6000 l0 -6000 1515 0 1515 0 0 6000 0 6000 -1515 0 -1515 0 0 -6000z"/>
 </g>
<g id="layer102" fill="#db1d0d" stroke="none">
 <path d="M1095 11219 c-22 -4 -60 -8 -85 -8 -158 -3 -520 -92 -687 -172 -58 -26 -63 -32 -63 -60 0 -26 3 -29 14 -20 19 16 134 71 147 71 6 0 25 6 42 13 252 108 713 159 1020 112 244 -36 348 -72 712 -245 95 -45 376 -303 415 -381 33 -64 31 -105 -8 -140 -31 -27 -70 -41 -57 -19 3 6 -5 10 -18 10 -14 0 -50 13 -81 30 l-57 29 57 -67 c61 -72 74 -82 74 -58 0 10 9 16 23 16 62 0 132 80 122 139 -17 91 -71 158 -295 363 -95 87 -118 101 -365 218 -120 57 -300 115 -430 139 -78 14 -337 40 -395 39 -25 0 -63 -4 -85 -9z"/>
 <path d="M260 8690 c0 -18 35 -46 105 -86 11 -6 40 -23 65 -37 71 -41 432 -217 446 -217 3 0 43 -18 90 -40 47 -22 87 -40 90 -40 8 0 213 -103 291 -146 245 -135 546 -391 657 -558 155 -234 242 -517 253 -827 10 -283 -37 -488 -174 -751 -137 -264 -243 -381 -698 -777 -17 -14 -55 -46 -85 -71 -232 -188 -407 -359 -512 -500 -123 -165 -163 -275 -163 -445 1 -127 18 -204 71 -312 57 -114 160 -239 289 -348 26 -22 56 -47 65 -55 10 -8 28 -22 40 -30 13 -8 44 -31 69 -51 25 -19 65 -48 89 -64 48 -32 48 -29 -1 -135 -43 -94 -254 -451 -278 -470 -3 -3 -12 -17 -20 -32 -27 -53 -111 -188 -120 -193 -5 -4 -9 15 -9 42 0 62 -23 170 -49 227 -48 109 -174 196 -283 196 -78 0 -130 -27 -169 -88 -41 -65 -52 -114 -46 -200 16 -208 175 -334 405 -319 50 3 82 1 82 -5 0 -20 -42 -176 -70 -258 -15 -47 -35 -116 -44 -155 -16 -67 -68 -190 -98 -228 -12 -16 -16 -14 -49 35 -67 101 -190 143 -294 103 -68 -26 -99 -71 -103 -156 -7 -124 51 -183 178 -183 78 0 123 14 190 60 l49 34 11 -38 c15 -56 13 -66 -20 -90 -22 -17 -30 -31 -30 -54 0 -28 58 -221 176 -589 41 -128 43 -142 40 -225 -3 -49 -8 -102 -12 -118 -6 -24 -2 -33 17 -50 14 -12 38 -39 54 -61 17 -25 21 -33 9 -23 -19 17 -21 16 -38 -13 -13 -22 -18 -51 -18 -104 1 -94 16 -129 25 -57 6 48 37 124 55 136 5 3 31 -6 58 -20 89 -46 206 -21 285 63 20 21 44 52 53 68 16 27 16 18 0 -19 -3 -9 2 -17 14 -20 38 -13 74 -65 107 -161 14 -40 18 7 5 64 -16 72 -32 102 -76 145 -28 27 -35 41 -32 61 3 14 1 47 -4 73 -5 26 -10 60 -11 77 -1 20 -10 33 -26 41 -13 7 -53 41 -88 76 -53 52 -95 114 -240 358 -97 162 -184 310 -195 328 -11 18 -28 37 -39 42 -10 6 -19 21 -19 34 0 12 -6 43 -14 68 -13 45 -13 45 25 101 43 65 71 134 104 262 13 50 36 124 50 165 14 41 34 116 44 166 16 77 25 100 63 150 25 32 48 66 52 74 10 22 26 47 74 118 23 35 42 67 42 70 0 4 15 30 33 57 84 129 165 268 223 385 l63 128 68 -34 c218 -109 469 -176 603 -160 159 19 187 25 315 69 183 62 311 141 463 289 47 47 52 55 52 96 l0 45 -31 -39 c-35 -45 -132 -137 -169 -162 -14 -9 -41 -29 -60 -44 -49 -38 -182 -106 -265 -134 -175 -61 -217 -67 -381 -61 -141 5 -164 10 -332 71 -83 31 -232 108 -232 120 0 44 107 287 187 424 89 153 248 328 399 439 270 198 574 235 794 95 30 -19 59 -41 63 -48 14 -25 28 -15 25 18 -3 28 -12 38 -68 70 -105 61 -170 80 -300 85 -99 5 -127 2 -200 -17 -188 -51 -324 -136 -524 -329 -86 -83 -211 -244 -248 -321 -7 -14 -15 -27 -18 -30 -7 -7 -105 -214 -134 -285 -13 -33 -31 -61 -40 -63 -16 -3 -204 130 -286 202 -240 212 -336 377 -347 596 -15 297 161 541 723 996 208 169 504 458 592 579 68 93 174 289 221 406 72 180 108 410 97 609 -8 137 -46 340 -87 465 -32 95 -105 261 -126 283 -7 7 -13 17 -13 22 0 4 -25 41 -56 81 -76 101 -239 259 -354 345 -96 72 -233 165 -260 177 -8 4 -31 17 -50 29 -86 53 -333 168 -607 282 -100 42 -291 143 -398 211 -89 56 -95 59 -95 35z m333 -5790 c61 -30 112 -86 145 -159 23 -49 27 -73 30 -183 4 -121 3 -127 -17 -138 -57 -30 -203 -20 -281 20 -19 10 -52 36 -72 57 -112 116 -112 331 1 409 30 21 45 25 91 22 32 -2 76 -14 103 -28z m-199 -1104 c40 -23 106 -107 106 -134 0 -29 -128 -98 -190 -103 -80 -5 -101 0 -136 35 -30 30 -34 40 -34 88 0 64 26 113 73 134 45 20 127 12 181 -20z m170 -317 c-17 -5 -39 -18 -49 -29 -22 -24 -18 -25 28 -5 31 13 36 13 49 -3 17 -19 153 -295 192 -389 34 -81 33 -110 -5 -186 -23 -46 -27 -58 -13 -46 32 27 77 47 127 54 26 4 47 10 45 14 -2 3 -18 34 -36 69 -18 34 -30 62 -28 62 4 0 96 -154 96 -161 0 -3 -23 -6 -51 -7 -63 -3 -133 -32 -176 -74 -18 -18 -34 -30 -37 -27 -14 16 -215 679 -210 693 8 20 52 45 79 45 13 -1 9 -4 -11 -10z m161 -199 c3 -5 4 -10 1 -10 -3 0 -8 5 -11 10 -3 6 -4 10 -1 10 3 0 8 -4 11 -10z m30 -50 c3 -5 4 -10 1 -10 -3 0 -8 5 -11 10 -3 6 -4 10 -1 10 3 0 8 -4 11 -10z m10 -60 c3 -5 1 -10 -4 -10 -6 0 -11 5 -11 10 0 6 2 10 4 10 3 0 8 -4 11 -10z m29 -62 c-4 -6 -10 -5 -15 3 -14 22 -10 33 6 19 8 -7 12 -17 9 -22z m66 -58 c6 -11 8 -20 6 -20 -3 0 -10 9 -16 20 -6 11 -8 20 -6 20 3 0 10 -9 16 -20z m54 -225 c-77 -17 -118 -37 -168 -84 l-39 -36 22 32 c37 55 137 102 216 102 18 -1 6 -6 -31 -14z m23 -52 c-4 -3 -7 0 -7 7 0 7 3 10 7 7 3 -4 3 -10 0 -14z m-12 -13 c3 -5 1 -10 -4 -10 -6 0 -11 5 -11 10 0 6 2 10 4 10 3 0 8 -4 11 -10z m80 -20 c3 -5 4 -10 1 -10 -3 0 -8 5 -11 10 -3 6 -4 10 -1 10 3 0 8 -4 11 -10z m-157 -25 c-3 -3 -9 2 -12 12 -6 14 -5 15 5 6 7 -7 10 -15 7 -18z m139 -2 c-4 -3 -7 0 -7 7 0 7 3 10 7 7 3 -4 3 -10 0 -14z m-187 3 c0 -3 -5 -8 -12 -12 -7 -4 -8 -3 -4 4 7 12 16 16 16 8z m137 -3 c-4 -3 -10 -3 -14 0 -3 4 0 7 7 7 7 0 10 -3 7 -7z m-110 -10 c-4 -3 -10 -3 -14 0 -3 4 0 7 7 7 7 0 10 -3 7 -7z m30 -10 c-4 -3 -10 -3 -14 0 -3 4 0 7 7 7 7 0 10 -3 7 -7z m63 -3 c0 -5 -2 -10 -4 -10 -3 0 -8 5 -11 10 -3 6 -1 10 4 10 6 0 11 -4 11 -10z m225 -5 c40 -8 29 -21 -15 -17 -90 9 -280 -57 -359 -124 -19 -15 -42 -42 -52 -59 l-19 -30 0 32 c0 43 50 93 138 137 133 66 209 81 307 61z m-278 -12 c-4 -3 -10 -3 -14 0 -3 4 0 7 7 7 7 0 10 -3 7 -7z m-89 -23 c-7 -10 -14 -18 -15 -16 -6 6 9 36 18 36 5 0 4 -9 -3 -20z m42 -15 c0 -5 -5 -3 -10 5 -5 8 -10 20 -10 25 0 6 5 3 10 -5 5 -8 10 -19 10 -25z m17 18 c-4 -3 -7 0 -7 7 0 7 3 10 7 7 3 -4 3 -10 0 -14z m153 -60 c-11 -17 -11 -17 -6 0 3 10 6 24 7 30 0 9 2 9 5 0 3 -7 0 -20 -6 -30z m-253 0 c-4 -3 -7 0 -7 7 0 7 3 10 7 7 3 -4 3 -10 0 -14z m180 0 c-4 -3 -7 0 -7 7 0 7 3 10 7 7 3 -4 3 -10 0 -14z m-17 -3 c0 -5 -5 -10 -11 -10 -5 0 -7 5 -4 10 3 6 8 10 11 10 2 0 4 -4 4 -10z m57 3 c-4 -3 -10 -3 -14 0 -3 4 0 7 7 7 7 0 10 -3 7 -7z m60 -10 c-4 -3 -7 0 -7 7 0 7 3 10 7 7 3 -4 3 -10 0 -14z m-57 -23 c-8 -4 -19 -8 -24 -8 -5 0 -13 -6 -17 -14 -6 -9 -9 -9 -9 -1 0 7 12 18 28 26 28 14 48 12 22 -3z m-113 -7 c-4 -3 -7 0 -7 7 0 7 3 10 7 7 3 -4 3 -10 0 -14z m60 10 c-4 -3 -10 -3 -14 0 -3 4 0 7 7 7 7 0 10 -3 7 -7z m90 -10 c-4 -3 -7 0 -7 7 0 7 3 10 7 7 3 -4 3 -10 0 -14z m30 0 c-4 -3 -7 0 -7 7 0 7 3 10 7 7 3 -4 3 -10 0 -14z m-210 -20 c-4 -3 -7 0 -7 7 0 7 3 10 7 7 3 -4 3 -10 0 -14z m155 -5 c-7 -7 -12 -8 -12 -2 0 14 12 26 19 19 2 -3 -1 -11 -7 -17z m35 -5 c-4 -3 -7 0 -7 7 0 7 3 10 7 7 3 -4 3 -10 0 -14z m33 7 c0 -5 -10 -19 -22 -30 -18 -16 -20 -23 -9 -29 8 -5 9 -11 3 -15 -21 -13 -21 27 0 54 26 32 28 34 28 20z m-90 -8 c0 -5 -7 -9 -15 -9 -8 0 -12 4 -9 9 3 4 9 8 15 8 5 0 9 -4 9 -8z m-123 -9 c-4 -3 -10 -3 -14 0 -3 4 0 7 7 7 7 0 10 -3 7 -7z m56 -23 c3 -11 1 -20 -4 -20 -5 0 -9 4 -9 9 0 5 -3 17 -7 27 -4 11 -3 15 4 11 6 -4 13 -16 16 -27z m104 13 c-4 -3 -7 0 -7 7 0 7 3 10 7 7 3 -4 3 -10 0 -14z m-17 -3 c0 -5 -5 -10 -11 -10 -5 0 -7 5 -4 10 3 6 8 10 11 10 2 0 4 -4 4 -10z m130 -4 c0 -3 -5 -8 -12 -12 -7 -4 -8 -3 -4 4 7 12 16 16 16 8z m-170 -16 c-18 -12 -30 -13 -30 -2 0 4 10 9 22 9 18 2 20 0 8 -7z m37 -17 c-4 -3 -7 0 -7 7 0 7 3 10 7 7 3 -4 3 -10 0 -14z m140 -5 c-3 -8 -6 -5 -6 6 -1 11 2 17 5 13 3 -3 4 -12 1 -19z m-270 -5 c-4 -3 -7 0 -7 7 0 7 3 10 7 7 3 -4 3 -10 0 -14z m123 -18 c0 -5 -5 -3 -10 5 -5 8 -10 20 -10 25 0 6 5 3 10 -5 5 -8 10 -19 10 -25z m87 18 c-4 -3 -7 0 -7 7 0 7 3 10 7 7 3 -4 3 -10 0 -14z m-180 -10 c-4 -3 -7 0 -7 7 0 7 3 10 7 7 3 -4 3 -10 0 -14z m33 7 c0 -5 -2 -10 -4 -10 -3 0 -8 5 -11 10 -3 6 -1 10 4 10 6 0 11 -4 11 -10z m27 3 c-4 -3 -10 -3 -14 0 -3 4 0 7 7 7 7 0 10 -3 7 -7z m63 -7 c0 -3 -4 -8 -10 -11 -5 -3 -10 -1 -10 4 0 6 5 11 10 11 6 0 10 -2 10 -4z m40 -1 c0 -2 -10 -9 -22 -15 -22 -11 -22 -10 -4 4 21 17 26 19 26 11z m57 -12 c-4 -3 -7 0 -7 7 0 7 3 10 7 7 3 -4 3 -10 0 -14z m-180 -10 c-4 -3 -10 -3 -14 0 -3 4 0 7 7 7 7 0 10 -3 7 -7z m30 0 c-4 -3 -10 -3 -14 0 -3 4 0 7 7 7 7 0 10 -3 7 -7z m130 -10 c-4 -3 -7 0 -7 7 0 7 3 10 7 7 3 -4 3 -10 0 -14z m-212 -3 c3 -5 4 -10 1 -10 -3 0 -8 5 -11 10 -3 6 -4 10 -1 10 3 0 8 -4 11 -10z m199 -15 c3 -8 0 -17 -6 -21 -7 -4 -8 -3 -4 4 4 7 3 12 -2 12 -6 0 -12 7 -15 14 -4 10 -1 13 8 10 7 -3 16 -12 19 -19z m-167 8 c-4 -3 -10 -3 -14 0 -3 4 0 7 7 7 7 0 10 -3 7 -7z m30 0 c-4 -3 -10 -3 -14 0 -3 4 0 7 7 7 7 0 10 -3 7 -7z m30 0 c-4 -3 -10 -3 -14 0 -3 4 0 7 7 7 7 0 10 -3 7 -7z m58 -3 c-3 -5 0 -10 7 -10 8 0 6 -5 -5 -11 -10 -6 -21 -8 -24 -5 -4 3 -1 6 5 6 6 0 9 7 6 15 -4 8 -1 15 6 15 6 0 8 -4 5 -10z m115 -4 c0 -3 -5 -8 -12 -12 -7 -4 -8 -3 -4 4 7 12 16 16 16 8z m-223 -13 c-4 -3 -10 -3 -14 0 -3 4 0 7 7 7 7 0 10 -3 7 -7z m60 0 c-4 -3 -10 -3 -14 0 -3 4 0 7 7 7 7 0 10 -3 7 -7z m10 -20 c-4 -3 -10 -3 -14 0 -3 4 0 7 7 7 7 0 10 -3 7 -7z m40 -10 c-4 -3 -10 -3 -14 0 -3 4 0 7 7 7 7 0 10 -3 7 -7z m-60 -10 c-4 -3 -10 -3 -14 0 -3 4 0 7 7 7 7 0 10 -3 7 -7z m30 0 c-4 -3 -10 -3 -14 0 -3 4 0 7 7 7 7 0 10 -3 7 -7z"/>
 <path d="M730 120 c0 -7 3 -10 7 -7 3 4 3 10 0 14 -4 3 -7 0 -7 -7z"/>
 </g>

</svg>